# Wavefront Obj file
# 
# verts: 54 uv-s: 110
mtllib lp.mtl

g Cylinder.1
#pivot 0.000000 0.000000 0.000000

v -359.199127 55.624882 -288.490723
v 455.631348 68.768570 -288.490723
v -359.199127 50.624882 -288.490723
v 455.631348 63.768581 -288.490723
v -359.199127 54.079796 -293.246002
v 455.631348 67.223488 -293.246002
v -359.199127 59.669971 -291.429657
v 455.631348 72.813660 -291.429657
v -359.199127 59.669971 -285.551788
v 455.631348 72.813660 -285.551788
v -359.199127 54.079796 -283.735443
v 455.631348 67.223488 -283.735443
v 45.503048 30.118015 -285.551788
v 45.503048 30.118015 -291.429657
v 45.503048 24.527847 -293.246002
v 45.503048 21.072929 -288.490723
v 45.503048 24.527847 -283.735443
v 844.060974 97.909615 -288.490723
v 844.060974 101.364555 -293.246002
v 844.060974 106.954689 -291.429657
v 844.060974 106.954689 -285.551788
v 844.060974 101.364555 -283.735443
v -733.662659 119.942986 -288.490723
v -733.662659 123.397888 -293.246002
v -733.662659 128.988068 -291.429657
v -733.662659 128.988068 -285.551788
v -733.662659 123.397888 -283.735443
# 27 positions

vt 0.983999 0.473959
vt 0.983999 0.720804
vt 0.980462 0.720804
vt 0.980462 0.473959
vt 0.995000 0.485631
vt 0.995000 0.238785
vt 0.992138 0.238785
vt 0.992138 0.485631
vt 0.989276 0.238785
vt 0.989276 0.485631
vt 0.473959 0.005000
vt 0.720804 0.030697
vt 0.720804 0.034062
vt 0.473959 0.008365
vt 0.485631 0.133553
vt 0.238785 0.107856
vt 0.238785 0.111221
vt 0.485631 0.136918
vt 0.022197 0.021383
vt 0.018832 0.022477
vt 0.016753 0.019615
vt 0.018832 0.016753
vt 0.022197 0.017846
vt 0.005000 0.025191
vt 0.005000 0.028729
vt 0.008365 0.029822
vt 0.010444 0.026960
vt 0.008365 0.024098
vt 0.980462 0.230380
vt 0.983999 0.230380
vt 0.729210 0.119132
vt 0.729210 0.115767
vt 0.992138 0.729210
vt 0.995000 0.729210
vt 0.989276 0.729210
vt 0.230380 0.026151
vt 0.230380 0.022787
vt 0.983999 0.954590
vt 0.980462 0.954590
vt 0.954590 0.051246
vt 0.954590 0.054611
vt 0.992138 0.005000
vt 0.989276 0.005000
vt 0.995000 0.005000
vt 0.005000 0.087308
vt 0.005000 0.090672
vt 0.005000 0.067872
vt 0.005000 0.064507
vt 0.980462 0.005000
vt 0.983999 0.005000
vt 0.954590 0.077411
vt 0.954590 0.074046
vt 0.992138 0.954590
vt 0.995000 0.954590
vt 0.989276 0.954590
# 55 texture coordinates

vn -0.127750 -0.991807 0.000000
vn 0.095556 -0.995424 0.000000
vn -0.039486 -0.306891 -0.950925
vn 0.029565 -0.307989 -0.950930
vn 0.103366 0.802813 -0.587202
vn -0.077343 0.805703 -0.587248
vn 0.103366 0.802813 0.587202
vn -0.077343 0.805703 0.587248
vn -0.039486 -0.306891 0.950925
vn 0.029565 -0.307989 0.950930
vn -0.012483 0.808176 0.588809
vn -0.012483 0.808176 -0.588809
vn 0.004753 -0.308236 -0.951298
vn 0.015460 -0.999880 0.000000
vn 0.004753 -0.308236 0.951298
vn 0.577559 -0.816349 0.000000
vn 0.542638 -0.258939 -0.799059
vn 0.480770 0.708732 -0.516294
vn 0.480770 0.708732 0.516294
vn 0.542638 -0.258939 0.799059
vn -0.629440 -0.777049 0.000000
vn -0.561498 -0.253001 -0.787852
vn -0.428753 0.727937 -0.535050
vn -0.428753 0.727937 0.535050
vn -0.561498 -0.253001 0.787852
# 25 normals

usemtl default
f 13/1/11 10/2/8 8/3/6 14/4/12
f 15/5/13 6/6/4 4/7/2 16/8/14
f 16/8/14 4/7/2 12/9/10 17/10/15
f 17/11/15 12/12/10 10/13/8 13/14/11
f 14/15/12 8/16/6 6/17/4 15/18/13
f 21/19/19 22/20/20 18/21/16 19/22/17 20/23/18
f 26/24/24 25/25/23 24/26/22 23/27/21 27/28/25
f 14/4/12 7/29/5 9/30/7 13/1/11
f 15/18/13 5/31/3 7/32/5 14/15/12
f 16/8/14 3/33/1 5/34/3 15/5/13
f 17/10/15 11/35/9 3/33/1 16/8/14
f 13/14/11 9/36/7 11/37/9 17/11/15
f 10/2/8 21/38/19 20/39/18 8/3/6
f 12/12/10 22/40/20 21/41/19 10/13/8
f 4/7/2 18/42/16 22/43/20 12/9/10
f 6/6/4 19/44/17 18/42/16 4/7/2
f 8/16/6 20/45/18 19/46/17 6/17/4
f 9/36/7 26/47/24 27/48/25 11/37/9
f 7/29/5 25/49/23 26/50/24 9/30/7
f 5/31/3 24/51/22 25/52/23 7/32/5
f 3/33/1 23/53/21 24/54/22 5/34/3
f 11/35/9 27/55/25 23/53/21 3/33/1

g Cylinder
#pivot 0.000000 0.000000 0.000000

v -359.199127 55.624882 -90.000000
v 455.631348 68.768570 -90.000000
v -359.199127 50.624882 -90.000000
v 455.631348 63.768581 -90.000000
v -359.199127 54.079796 -94.755287
v 455.631348 67.223488 -94.755287
v -359.199127 59.669971 -92.938934
v 455.631348 72.813660 -92.938934
v -359.199127 59.669971 -87.061066
v 455.631348 72.813660 -87.061066
v -359.199127 54.079796 -85.244720
v 455.631348 67.223488 -85.244720
v 45.503048 30.118015 -87.061066
v 45.503048 30.118015 -92.938934
v 45.503048 24.527847 -94.755287
v 45.503048 21.072929 -90.000000
v 45.503048 24.527847 -85.244720
v 844.060974 97.909615 -90.000000
v 844.060974 101.364555 -94.755287
v 844.060974 106.954689 -92.938934
v 844.060974 106.954689 -87.061066
v 844.060974 101.364555 -85.244720
v -733.662659 119.942986 -90.000000
v -733.662659 123.397888 -94.755287
v -733.662659 128.988068 -92.938934
v -733.662659 128.988068 -87.061066
v -733.662659 123.397888 -85.244720
# 27 positions

vt 0.963432 0.473959
vt 0.963432 0.720804
vt 0.959895 0.720804
vt 0.959895 0.473959
vt 0.974433 0.485631
vt 0.974433 0.238785
vt 0.971571 0.238785
vt 0.971571 0.485631
vt 0.968709 0.238785
vt 0.968709 0.485631
vt 0.473959 0.143092
vt 0.720805 0.168790
vt 0.720805 0.172154
vt 0.473959 0.146457
vt 0.485631 0.271646
vt 0.238785 0.245949
vt 0.238785 0.249313
vt 0.485631 0.275010
vt 0.010444 0.016976
vt 0.007079 0.018070
vt 0.005000 0.015207
vt 0.007079 0.012345
vt 0.010444 0.013439
vt 0.016753 0.006093
vt 0.016753 0.009631
vt 0.020117 0.010724
vt 0.022197 0.007862
vt 0.020117 0.005000
vt 0.959895 0.230380
vt 0.963432 0.230380
vt 0.729210 0.257224
vt 0.729210 0.253859
vt 0.971571 0.729210
vt 0.974433 0.729210
vt 0.968709 0.729210
vt 0.230380 0.164244
vt 0.230380 0.160879
vt 0.963432 0.954590
vt 0.959895 0.954590
vt 0.954590 0.189338
vt 0.954590 0.192703
vt 0.971571 0.005000
vt 0.968709 0.005000
vt 0.974433 0.005000
vt 0.005000 0.225400
vt 0.005000 0.228765
vt 0.005000 0.205964
vt 0.005000 0.202600
vt 0.959895 0.005000
vt 0.963432 0.005000
vt 0.954590 0.215503
vt 0.954590 0.212139
vt 0.971571 0.954590
vt 0.974433 0.954590
vt 0.968709 0.954590
# 55 texture coordinates

vn -0.127750 -0.991807 0.000000
vn 0.095556 -0.995424 0.000000
vn -0.039486 -0.306891 -0.950925
vn 0.029565 -0.307989 -0.950930
vn 0.103366 0.802814 -0.587202
vn -0.077343 0.805704 -0.587247
vn 0.103366 0.802813 0.587202
vn -0.077343 0.805703 0.587248
vn -0.039486 -0.306891 0.950925
vn 0.029565 -0.307989 0.950930
vn -0.012483 0.808176 0.588809
vn -0.012483 0.808176 -0.588808
vn 0.004753 -0.308236 -0.951298
vn 0.015460 -0.999881 0.000000
vn 0.004753 -0.308236 0.951298
vn 0.577559 -0.816349 0.000000
vn 0.542638 -0.258939 -0.799059
vn 0.480770 0.708732 -0.516294
vn 0.480770 0.708732 0.516294
vn 0.542638 -0.258939 0.799059
vn -0.629440 -0.777049 0.000000
vn -0.561498 -0.253001 -0.787852
vn -0.428753 0.727938 -0.535049
vn -0.428753 0.727937 0.535050
vn -0.561498 -0.253001 0.787852
# 25 normals

usemtl default
f 40/56/36 37/57/33 35/58/31 41/59/37
f 42/60/38 33/61/29 31/62/27 43/63/39
f 43/63/39 31/62/27 39/64/35 44/65/40
f 44/66/40 39/67/35 37/68/33 40/69/36
f 41/70/37 35/71/31 33/72/29 42/73/38
f 48/74/44 49/75/45 45/76/41 46/77/42 47/78/43
f 53/79/49 52/80/48 51/81/47 50/82/46 54/83/50
f 41/59/37 34/84/30 36/85/32 40/56/36
f 42/73/38 32/86/28 34/87/30 41/70/37
f 43/63/39 30/88/26 32/89/28 42/60/38
f 44/65/40 38/90/34 30/88/26 43/63/39
f 40/69/36 36/91/32 38/92/34 44/66/40
f 37/57/33 48/93/44 47/94/43 35/58/31
f 39/67/35 49/95/45 48/96/44 37/68/33
f 31/62/27 45/97/41 49/98/45 39/64/35
f 33/61/29 46/99/42 45/97/41 31/62/27
f 35/71/31 47/100/43 46/101/42 33/72/29
f 36/91/32 53/102/49 54/103/50 38/92/34
f 34/84/30 52/104/48 53/105/49 36/85/32
f 32/86/28 51/106/47 52/107/48 34/87/30
f 30/88/26 50/108/46 51/109/47 32/89/28
f 38/90/34 54/110/50 50/108/46 30/88/26

# 44 faces
