# WaveFront *.obj file (generated by CINEMA 4D)

v 2.5 28.21476554870605 -28.85694122314453
v 2.5 51.76810455322266 -28.85694122314453
v 2.5 28.21476554870605 -44.16522216796875
v 2.5 51.76810455322266 -33.88137817382812
v -2.5 28.21476554870605 -44.16522216796875
v -2.5 51.76810455322266 -33.88137817382812
v -2.5 28.21476554870605 -28.85694122314453
v -2.5 51.76810455322266 -28.85694122314453
# 8 vertices

vn 1 0 0
vn 0 0.40014132857323 -0.91645342111588
vn -1 0 0
vn 0 0 1
vn 0 1 0
vn 0 -1 0
# 6 normals

vt 0 0 0
vt 0 1 0
vt 1 1 0
vt 1 0 0
# 4 texture coordinates

o Cube.2_0
usemtl default
f 3/4/1 4/3/1 2/2/1 1/1/1
f 5/4/2 6/3/2 4/2/2 3/1/2
f 7/4/3 8/3/3 6/2/3 5/1/3
f 1/4/4 2/3/4 8/2/4 7/1/4
f 4/4/5 6/3/5 8/2/5 2/1/5
f 5/4/6 3/3/6 1/2/6 7/1/6

v 28.21712493896484 28.21476554870605 -6.53964424133301
v 28.21712493896484 51.76810455322266 -6.53964424133301
v 42.77616500854492 28.21476554870605 -11.27016353607178
v 32.99565124511719 51.76810455322266 -8.09228038787842
v 41.2310791015625 28.21476554870605 -16.02544593811035
v 31.45056343078613 51.76810455322266 -12.84756374359131
v 26.67203903198242 28.21476554870605 -11.29492664337158
v 26.67203903198242 51.76810455322266 -11.29492664337158
# 8 vertices

vn 0.30901691317558 -0.00000002644973 0.95105654001236
vn 0.87159895896912 0.4001412987709 -0.28320002555847
vn -0.30901706218719 -0.00000001611722 -0.95105648040771
vn -0.95105642080307 0 0.30901721119881
# 4 normals

# 0 texture coordinate

o Cube.2_1
usemtl default
f 11/4/7 12/3/7 10/2/7 9/1/7
f 13/4/8 14/3/8 12/2/8 11/1/8
f 15/4/9 16/3/9 14/2/9 13/1/9
f 9/4/10 10/3/10 16/2/10 15/1/10
f 12/4/5 14/3/5 16/2/5 10/1/5
f 13/4/6 11/3/6 9/2/6 15/1/6

v 14.93914222717285 28.21476554870605 24.81521987915039
v 14.93914222717285 51.76810455322266 24.81521987915039
v 23.93712425231934 28.21476554870605 37.19987869262695
v 17.89243316650391 51.76810455322266 28.88007545471191
v 27.98220825195312 28.21476554870605 34.26095199584961
v 21.9375171661377 51.76810455322266 25.94114875793457
v 18.98422622680664 28.21476554870605 21.87629318237305
v 18.98422813415527 51.76810455322266 21.87629318237305
# 8 vertices

vn -0.80901694297791 0.00000000528995 0.58778530359268
vn 0.53867799043655 0.40014123916626 0.74142634868622
vn 0.80901706218719 0.00000000049477 -0.58778512477875
vn -0.58778530359268 0.00000002379942 -0.80901700258255
vn 0.00000000875868 1 0.00000001205529
vn -0.00000000875868 -1 -0.00000001205529
# 6 normals

# 0 texture coordinate

o Cube.2_2
usemtl default
f 19/4/11 20/3/11 18/2/11 17/1/11
f 21/4/12 22/3/12 20/2/12 19/1/12
f 23/4/13 24/3/13 22/2/13 21/1/13
f 17/4/14 18/3/14 24/2/14 23/1/14
f 20/4/15 22/3/15 24/2/15 18/1/15
f 21/4/16 19/3/16 17/2/16 23/1/16

v -18.98422622680664 28.21476554870605 21.87629318237305
v -18.98422813415527 51.76810455322266 21.87629318237305
v -27.98220825195312 28.21476554870605 34.26095199584961
v -21.9375171661377 51.76810455322266 25.94114875793457
v -23.93712425231934 28.21476554870605 37.19987869262695
v -17.89243316650391 51.76810455322266 28.88007545471191
v -14.93914222717285 28.21476554870605 24.81521987915039
v -14.93914222717285 51.76810455322266 24.81521987915039
# 8 vertices

vn -0.80901706218719 -0.00000003804703 -0.58778512477875
vn -0.53867799043655 0.40014126896858 0.74142628908157
vn 0.80901694297791 0.00000003223444 0.58778530359268
vn 0.58778530359268 0.00000002429399 -0.80901694297791
vn -0.00000001238665 1 0.00000001704876
vn 0.00000001238665 -1 -0.00000001704876
# 6 normals

# 0 texture coordinate

o Cube.2_3
usemtl default
f 27/4/17 28/3/17 26/2/17 25/1/17
f 29/4/18 30/3/18 28/2/18 27/1/18
f 31/4/19 32/3/19 30/2/19 29/1/19
f 25/4/20 26/3/20 32/2/20 31/1/20
f 28/4/21 30/3/21 32/2/21 26/1/21
f 29/4/22 27/3/22 25/2/22 31/1/22

v -26.67203903198242 28.21476554870605 -11.29492664337158
v -26.67203903198242 51.76810455322266 -11.29492664337158
v -41.2310791015625 28.21476554870605 -16.02544593811035
v -31.45056343078613 51.76810455322266 -12.84756374359131
v -42.77616500854492 28.21476554870605 -11.27016353607178
v -32.99565124511719 51.76810455322266 -8.09228038787842
v -28.21712493896484 28.21476554870605 -6.53964424133301
v -28.21712493896484 51.76810455322266 -6.53964424133301
# 8 vertices

vn 0.30901706218719 -0.00000000528995 -0.95105648040771
vn -0.87159895896912 0.40014126896858 -0.28320002555847
vn -0.30901688337326 -0.00000008058608 0.95105654001236
vn 0.95105642080307 0 0.30901721119881
# 4 normals

# 0 texture coordinate

o Cube.2_4
usemtl default
f 35/4/23 36/3/23 34/2/23 33/1/23
f 37/4/24 38/3/24 36/2/24 35/1/24
f 39/4/25 40/3/25 38/2/25 37/1/25
f 33/4/26 34/3/26 40/2/26 39/1/26
f 36/4/5 38/3/5 40/2/5 34/1/5
f 37/4/6 35/3/6 33/2/6 39/1/6

v 170.55929565429688 940 12
v 190.55929565429688 940 12
v 80 792.69268798828125 12
v 100 792.69268798828125 12
v 80 792.69268798828125 -12
v 100 792.69268798828125 -12
v 170.55929565429688 940 -12
v 190.55929565429688 940 -12
v -170.55929565429688 940 12
v -190.55929565429688 940 12
v -80 792.69268798828125 12
v -100 792.69268798828125 12
v -80 792.69268798828125 -12
v -100 792.69268798828125 -12
v -170.55929565429688 940 -12
v -190.55929565429688 940 -12
# 16 vertices

# 0 texture coordinate

o Cube.2
usemtl default
f 43/4 44/3 42/2 41/1
f 45/4 46/3 44/2 43/1
f 47/4 48/3 46/2 45/1
f 41/4 42/3 48/2 47/1
f 44/4 46/3 48/2 42/1
f 45/4 43/3 41/2 47/1
f 50/2 52/3 51/4 49/1
f 52/2 54/3 53/4 51/1
f 54/2 56/3 55/4 53/1
f 56/2 50/3 49/4 55/1
f 56/2 54/3 52/4 50/1
f 49/2 51/3 53/4 55/1

v -236.64862060546875 930 30
v -236.64862060546875 950 30
v 236.64862060546875 930 30
v 236.64862060546875 950 30
v 236.64862060546875 930 -30
v 236.64862060546875 950 -30
v -236.64862060546875 930 -30
v -236.64862060546875 950 -30
v 252.25442504882812 930 18
v 252.25442504882812 950 18
v 252.25442504882812 930 -18
v 252.25442504882812 950 -18
v -252.25442504882812 930 18
v -252.25442504882812 950 18
v -252.25442504882812 930 -18
v -252.25442504882812 950 -18
# 16 vertices

# 0 texture coordinate

o Cube.1
usemtl default
f 59/4 60/3 58/2 57/1
f 67/4 68/3 66/2 65/1
f 63/4 64/3 62/2 61/1
f 69/4 70/3 72/2 71/1
f 60/4 62/3 64/2 58/1
f 61/4 59/3 57/2 63/1
f 61/4 67/4 65/1 59/1
f 62/3 68/3 67/4 61/4
f 60/2 66/2 68/3 62/3
f 59/1 65/1 66/2 60/2
f 57/4 69/4 71/1 63/1
f 58/3 70/3 69/4 57/4
f 64/2 72/2 70/3 58/3
f 63/1 71/1 72/2 64/2

v -150 780 30
v -150 800 30
v 150 780 30
v 150 800 30
v 150 780 -30
v 150 800 -30
v -150 780 -30
v -150 800 -30
v 164.1328125 780 15
v 164.1328125 800 15
v 164.1328125 780 -15
v 164.1328125 800 -15
v -164.1328125 780 15
v -164.1328125 800 15
v -164.1328125 780 -15
v -164.1328125 800 -15
# 16 vertices

# 0 texture coordinate

o Cube
usemtl default
f 75/4 76/3 74/2 73/1
f 83/4 84/3 82/2 81/1
f 79/4 80/3 78/2 77/1
f 85/4 86/3 88/2 87/1
f 76/4 78/3 80/2 74/1
f 77/4 75/3 73/2 79/1
f 77/4 83/4 81/1 75/1
f 78/3 84/3 83/4 77/4
f 76/2 82/2 84/3 78/3
f 75/1 81/1 82/2 76/2
f 73/4 85/4 87/1 79/1
f 74/3 86/3 85/4 73/4
f 80/2 88/2 86/3 74/3
f 79/1 87/1 88/2 80/2

v 0 11.85124111175537 0
v 0 71.85124206542969 0
v 34.61146926879883 11.85124111175537 0
v 21.4524040222168 991.85125732421875 0
v 34.61146926879883 71.85124206542969 0
v 21.57989692687988 11.85124111175537 -27.06033515930176
v 13.63346099853516 991.85125732421875 -16.2362003326416
v 21.57989692687988 71.85124206542969 -27.06033515930176
v -7.70177602767944 11.85124111175537 -33.74368667602539
v -3.93554306030273 991.85125732421875 -20.24621200561523
v -7.70177602767944 71.85124206542969 -33.74368667602539
v -31.1838550567627 11.85124111175537 -15.01735305786133
v -18.02478981018066 991.85125732421875 -9.01041221618652
v -31.1838550567627 71.85124206542969 -15.01735305786133
v -31.1838550567627 11.85124111175537 15.01735305786133
v -18.02478981018066 991.85125732421875 9.01041221618652
v -31.1838550567627 71.85124206542969 15.01735305786133
v -7.70177602767944 11.85124111175537 33.74368667602539
v -3.93554306030273 991.85125732421875 20.24621200561523
v -7.70177602767944 71.85124206542969 33.74368667602539
v 21.57989692687988 11.85124111175537 27.06033515930176
v 13.63346099853516 991.85125732421875 16.2362003326416
v 21.57989692687988 71.85124206542969 27.06033515930176
# 23 vertices

vt 0.5 0.5 0
vt 0 0.5 0
vt 0.18825510144234 0.89091575145721 0
vt 0.14285714924335 1 0
vt 0.14285714924335 0 0
vt 0.61126047372818 0.01253604888916 0
vt 0.18825510144234 0.10908424854279 0
vt 0.61126047372818 0.98746395111084 0
vt 0.28571429848671 1 0
vt 0.28571429848671 0 0
vt 0.71428573131561 0 0
vt 0.71428573131561 1 0
vt 0.85714286565781 1 0
vt 0.85714286565781 0 0
vt 0.95048445463181 0.71694189310074 0
vt 0.4285714328289 1 0
vt 0.4285714328289 0 0
vt 0.95048445463181 0.28305816650391 0
vt 0.57142859697342 1 0
vt 0.57142859697342 0 0
vt 0.09903113543987 0.19806230068207 0
vt 0 0.64310413599014 0
vt 0.5 0 0
vt 0.27747905254364 1 0
vt 0.72252094745636 1 0
vt 0.90096884965897 0.19806230068207 0
vt 1 0.64310413599014 0
# 27 texture coordinates

o Cylinder.1
usemtl default
f 94/7 91/6 89/5
f 94/9 95/8 92/2 91/1
f 109/11 106/10 89/5
f 97/12 94/7 89/5
f 97/14 98/13 95/8 94/9
f 109/18 110/17 107/16 106/15
f 100/19 97/12 89/5
f 100/21 101/20 98/13 97/14
f 91/6 109/11 89/5
f 103/22 100/19 89/5
f 103/24 104/23 101/20 100/21
f 91/4 92/3 110/17 109/18
f 106/10 103/22 89/5
f 106/15 107/16 104/23 103/24
f 92/27 95/30 98/31 101/29 104/28 107/26 110/25

v 0 -30 0
v 0 30 0
v 60 -30 0
v 60 30 0
v 37.40938949584961 -30 -46.90988922119141
v 37.40938949584961 30 -46.90988922119141
v -13.35125637054443 -30 -58.49567413330078
v -13.35125637054443 30 -58.49567413330078
v -54.05813217163086 -30 -26.03302383422852
v -54.05813217163086 30 -26.03302383422852
v -54.05813217163086 -30 26.03302383422852
v -54.05813217163086 30 26.03302383422852
v -13.35125637054443 -30 58.49567413330078
v -13.35125637054443 30 58.49567413330078
v 37.40938949584961 -30 46.90988922119141
v 37.40938949584961 30 46.90988922119141
v 57.78016662597656 30 -0
v 36.02534484863281 30 45.17435455322266
v -12.85729694366455 30 56.33149719238281
v -52.05813217163086 30 25.06987571716309
v -52.05813217163086 30 -25.06987571716309
v -12.85729694366455 30 -56.33149719238281
v 36.02534484863281 30 -45.17435455322266
v 60 28 0
v 37.40938949584961 28 -46.90988922119141
v -13.35125637054443 28 -58.49567413330078
v -54.05813217163086 28 -26.03302383422852
v -54.05813217163086 28 26.03302383422852
v -13.35125637054443 28 58.49567413330078
v 37.40938949584961 28 46.90988922119141
# 30 vertices

vt 0.11434675008059 0.2095205783844 0
vt 0.01823407970369 0.63781410455704 0
vt 0.28533113002777 0.98228758573532 0
vt 0 0.96666669845581 0
vt 0.14285714924335 0.96666669845581 0
vt 0.71466886997223 0.98228758573532 0
vt 0.98176592588425 0.63781410455704 0
vt 0.5 0.01946234703064 0
vt 0.88565325737 0.2095205783844 0
vt 0.28571429848671 0.96666669845581 0
vt 0.71428573131561 0.96666669845581 0
vt 0.85714286565781 0.96666669845581 0
vt 1 0.96666669845581 0
vt 0.4285714328289 0.96666669845581 0
vt 0.57142859697342 0.96666669845581 0
vt 0.72252094745636 1 0
vt 0.72341006994247 1.01664972305298 0
vt 0.8492848277092 1.01743876934052 0
vt 0.58059239387512 1.01707077026367 0
vt 0.70727008581162 1.01764214038849 0
vt 0.00861939787865 1.01744961738586 0
vt 0.13420003652573 1.01705622673035 0
vt 0.43642351031303 1.01771247386932 0
vt 0.56357651948929 1.01771247386932 0
vt 0.29272994399071 1.01764214038849 0
vt 0.4194076359272 1.01707077026367 0
vt 0.15071518719196 1.01743876934052 0
vt 0.27658995985985 1.01664972305298 0
vt 0.86580002307892 1.01705622673035 0
vt 0.99138063192368 1.01744961738586 0
# 30 texture coordinates

o Cylinder
usemtl default
f 134/40 133/38 132/37 131/34 130/33 129/32 128/39
f 116/9 136/36 135/35 114/1
f 118/14 137/41 136/36 116/9
f 126/18 141/43 140/42 124/15
f 114/4 135/44 141/43 126/18
f 120/21 138/45 137/41 118/14
f 124/15 140/42 139/46 122/24
f 122/24 139/46 138/45 120/21
f 126/25 124/26 122/28 120/47 118/31 116/30 114/27
f 141/43 129/49 130/48 140/42
f 140/42 130/51 131/50 139/46
f 136/36 134/53 128/52 135/35
f 139/46 131/55 132/54 138/45
f 138/45 132/57 133/56 137/41
f 137/41 133/59 134/58 136/36
f 135/44 128/61 129/60 141/43

