# WaveFront *.obj file (generated by CINEMA 4D)

v 4 16.12639236450195 4
v 4 76.12638854980469 4
v 4 16.12639236450195 -4
v 4 76.12638854980469 -4
v 81.27661895751953 53.21451187133789 1.24766647815704
v 81.26377868652344 53.42541122436523 -2.38502192497253
v 5.6951699256897 16.12863731384277 1.77010476589203
v 5.6951699256897 76.1241455078125 1.77010476589203
v 5.6951699256897 16.12863731384277 -1.77010476589203
v 5.6951699256897 76.1241455078125 -1.77010476589203
v -4 16.12639236450195 -1.39999997615814
v -4 76.12638854980469 -1.39999997615814
v -4 76.12638854980469 1.39999997615814
v -4 16.12639236450195 1.39999997615814
v -1.39999997615814 16.12639236450195 4
v -1.39999997615814 76.12638854980469 4
v -1.39999997615814 76.12638854980469 -4
v -1.39999997615814 16.12639236450195 -4
# 18 vertices

vn 0 0 1
vn 0.00691209034994 0 0.99997609853744
vn 0 0 0
vn 0 0 -1
vn -1 0 0
vn 0 1 0
vn 0 -1 0
vn 0.22717286646366 -0.97375720739365 -0.01376367080957
vn 0.44123440980911 -0.89699125289917 -0.02681320533156
vn -0.00813693460077 0 -0.99996691942215
vn 0.1467222571373 0.98908179998398 0.01377663481981
vn 0.28897416591644 0.95694875717163 0.02725776284933
vn 0.79608482122421 0 0.60518503189087
vn 0.00066216016421 -0.99999976158142 0
vn 0.79608488082886 0 -0.60518503189087
vn 0.00066159764538 0.99999976158142 0
vn -0.70710676908493 0 0.70710676908493
vn -0.70710676908493 0 -0.70710676908493
# 18 normals

vt 0.32499998807907 0 0
vt 0.32499998807907 1 0
vt 1 1 0
vt 1 0 0
vt 0 1 0
vt 0 0.5 0
vt 0 0 0
vt 0.67500001192093 1 0
vt 0.67500001192093 0 0
vt 1 0.5 0
vt -0.32499998807907 0 0
vt -0.32499998807907 1 0
# 12 texture coordinates

o Cube
usemtl default
f 1/4/1 2/3/1 16/2/1 15/1/1
f 7/7/2 5/6/2 8/5/2
f 18/9/4 17/8/4 4/5/4 3/7/4
f 14/9/5 13/8/5 12/2/5 11/1/5
f 2/4/16 4/3/16 17/3/6 12/4/6 13/3/6 16/5/6
f 3/4/14 1/3/14 15/4/7 14/4/7 11/3/7 18/5/7
f 9/4/8 6/4/9 5/7/9 7/7/8
f 10/3/10 6/10/10 9/4/10
f 8/5/11 5/5/12 6/3/12 10/3/11
f 1/7/13 7/7/13 8/5/13 2/5/13
f 3/4/14 9/4/8 7/7/8 1/7/14
f 4/3/15 10/3/15 9/4/15 3/4/15
f 2/5/16 8/5/11 10/3/11 4/3/16
f 16/2/17 13/12/17 14/11/17 15/1/17
f 12/2/18 17/12/18 18/11/18 11/1/18

v 0 -100 0
v 0 100 0
v 3.41091299057007 -100 0
v 3.41091299057007 100 0
v 1.70545649528503 -100 -2.953937292099
v 1.70545649528503 100 -2.953937292099
v -1.70545649528503 -100 -2.953937292099
v -1.70545649528503 100 -2.953937292099
v -3.41091299057007 -100 -0
v -3.41091299057007 100 -0
v -1.70545649528503 -100 2.953937292099
v -1.70545649528503 100 2.953937292099
v 1.70545649528503 -100 2.953937292099
v 1.70545649528503 100 2.953937292099
# 14 vertices

vn -0.86602538824081 0 0.5
vn 0.86602538824081 0 -0.5
vn 0.86602538824081 0 0.5
vn -0.86602538824081 0 -0.5
# 4 normals

vt 0.5 0 0
vt 0.5 1 0
vt 0.66666668653488 1 0
vt 0.66666668653488 0 0
vt 0.16666667163372 1 0
vt 0.16666667163372 0 0
vt 0.83333331346512 1 0
vt 0.83333331346512 0 0
vt 0.75 1 0
vt 0.25 0 0
vt 0.33333334326744 1 0
vt 0.33333334326744 0 0
vt 0.75 0 0
vt 0.25 1 0
# 14 texture coordinates

o Cylinder
usemtl default
f 29/16/19 30/15/19 28/14/19 27/13/19
f 23/18/20 24/17/20 22/5/20 21/7/20
f 31/20/1 32/19/1 30/15/1 29/16/1
f 22/10/6 24/25/6 26/22/6 28/6/6 30/26/6 32/21/6
f 25/24/4 26/23/4 24/17/4 23/18/4
f 21/4/21 22/3/21 32/19/21 31/20/21
f 27/13/22 28/14/22 26/23/22 25/24/22
f 31/21/3 29/26/7 27/6/7 25/22/7 23/25/7 21/10/7

