# Wavefront Obj file
# 
# verts: 179 uv-s: 356
mtllib 1.mtl

g Cylinder.1
#pivot 0.000000 0.000000 0.000000

v 0.000000 0.000000 6.719621
v 0.000000 0.000000 -6.719621
v 50.000000 0.000000 6.719621
v 50.000000 0.000000 -6.719621
v 40.450848 -29.389261 6.719621
v 40.450848 -29.389261 -6.719621
v 15.450850 -47.552818 6.719621
v 15.450850 -47.552818 -6.719621
v -15.450850 -47.552818 6.719621
v -15.450850 -47.552818 -6.719621
v -40.450848 -29.389261 6.719621
v -40.450848 -29.389261 -6.719621
v -50.000000 -0.000000 6.719621
v -50.000000 -0.000000 -6.719621
v -40.450848 29.389261 6.719621
v -40.450848 29.389261 -6.719621
v -15.450850 47.552818 6.719621
v -15.450850 47.552818 -6.719621
v 15.450850 47.552818 6.719621
v 15.450850 47.552818 -6.719621
v 40.450848 29.389261 6.719621
v 40.450848 29.389261 -6.719621
v 45.583862 0.000000 -6.719621
v 36.878120 -26.793524 -6.719621
v 14.086187 -43.352825 -6.719621
v -14.086187 -43.352825 -6.719621
v -36.878120 -26.793524 -6.719621
v -45.583862 0.000000 -6.719621
v -36.878120 26.793524 -6.719621
v -14.086187 43.352825 -6.719621
v 14.086187 43.352825 -6.719621
v 36.878120 26.793524 -6.719621
v 45.583862 0.000000 6.719621
v 36.878120 -26.793524 6.719621
v 14.086187 -43.352825 6.719621
v -14.086187 -43.352825 6.719621
v -36.878120 -26.793524 6.719621
v -45.583862 -0.000000 6.719621
v -36.878120 26.793524 6.719621
v -14.086187 43.352825 6.719621
v 14.086187 43.352825 6.719621
v 36.878120 26.793524 6.719621
v 45.583862 0.000000 -4.219621
v 36.878120 -26.793524 -4.219621
v 14.086187 -43.352825 -4.219621
v -14.086187 -43.352825 -4.219621
v -36.878120 -26.793524 -4.219621
v -45.583862 0.000000 -4.219621
v -36.878120 26.793524 -4.219621
v -14.086187 43.352825 -4.219621
v 14.086187 43.352825 -4.219621
v 36.878120 26.793524 -4.219621
v 45.583862 0.000000 4.219621
v 36.878120 -26.793524 4.219621
v 14.086187 -43.352825 4.219621
v -14.086187 -43.352825 4.219621
v -36.878120 -26.793524 4.219621
v -45.583862 -0.000000 4.219621
v -36.878120 26.793524 4.219621
v -14.086187 43.352825 4.219621
v 14.086187 43.352825 4.219621
v 36.878120 26.793524 4.219621
v -5.545193 -34.331009 8.495702
v 5.960585 -34.325436 8.495702
v 5.960585 -28.525135 8.495702
v 17.382704 -22.501753 8.495702
v 22.915295 -10.856549 8.495702
v 18.252752 3.610728 8.495702
v 5.960585 9.578338 8.495702
v 5.960585 19.572689 8.495702
v 8.693417 18.468407 8.495702
v 10.690056 16.360220 8.495702
v 21.398293 23.142105 8.495702
v 14.248314 30.827492 8.495702
v 5.960585 33.761105 8.495702
v 5.960585 38.936760 8.495702
v -5.539615 38.936760 8.495702
v -5.539615 33.671871 8.495702
v -17.117895 27.637337 8.495702
v -22.405088 15.646339 8.495702
v -20.056734 5.397499 8.495702
v -13.841966 -0.845668 8.495702
v -5.541653 -4.074664 8.495702
v -5.541653 -12.730490 8.495702
v -8.771952 -11.648512 8.495702
v -12.062007 -8.357961 8.495702
v -23.475916 -16.210663 8.495702
v -15.616131 -25.156504 8.495702
v -5.541653 -28.614376 8.495702
v -8.400723 15.551526 8.495702
v -7.421510 18.200701 8.495702
v -4.915607 20.375813 8.495702
v -4.915607 10.202984 8.495702
v -7.522450 12.199626 8.495702
v -8.317065 15.467870 8.495702
v 8.732457 -9.166652 8.495702
v 7.923762 -11.804672 8.495702
v 5.425172 -13.979784 8.495702
v 5.425172 -3.806958 8.495702
v 8.024153 -5.803597 8.495702
v 8.816115 -9.071842 8.495702
v 10.690056 16.360220 -2.972170
v 5.960585 -34.325436 2.972170
v 5.960585 -28.525135 2.972170
v 17.382704 -22.501753 2.972170
v 22.915295 -10.856549 2.972170
v 18.252752 3.610728 2.972170
v 5.960585 9.578338 2.972170
v 5.960585 19.572689 2.972170
v 8.693417 18.468407 2.972170
v 10.690056 16.360220 2.972170
v 21.398293 23.142105 2.972170
v 14.248314 30.827492 2.972170
v 8.024153 -5.803597 -2.972170
v 5.425172 -3.806958 -2.972170
v 8.732457 -9.166652 -2.972170
v -8.317065 15.467870 -2.972170
v -4.915607 20.375813 -2.972170
v -7.421510 18.200701 -2.972170
v 21.398293 23.142105 -2.972170
v 5.425172 -13.979784 -2.972170
v -8.400723 15.551526 -2.972170
v -7.522450 12.199626 -2.972170
v 8.816115 -9.071842 -2.972170
v -4.915607 10.202984 -2.972170
v 7.923762 -11.804672 -2.972170
v -15.616131 -25.156504 2.972170
v 14.248314 30.827492 -2.972170
v -8.400723 15.551526 2.972170
v -7.421510 18.200701 2.972170
v -4.915607 20.375813 2.972170
v -4.915607 10.202984 2.972170
v -7.522450 12.199626 2.972170
v -8.317065 15.467870 2.972170
v 8.732457 -9.166652 2.972170
v 7.923762 -11.804672 2.972170
v 5.425172 -13.979784 2.972170
v 5.425172 -3.806958 2.972170
v 8.024153 -5.803597 2.972170
v 8.816115 -9.071842 2.972170
v -5.545193 -34.331009 -8.495702
v 5.960585 -34.325436 -8.495702
v 5.960585 -28.525135 -8.495702
v 17.382704 -22.501753 -8.495702
v 22.915295 -10.856549 -8.495702
v 18.252752 3.610728 -8.495702
v 5.960585 9.578338 -8.495702
v 5.960585 19.572689 -8.495702
v 8.693417 18.468407 -8.495702
v 10.690056 16.360220 -8.495702
v 21.398293 23.142105 -8.495702
v 14.248314 30.827492 -8.495702
v 5.960585 33.761105 -8.495702
v 5.960585 38.936760 -8.495702
v -5.539615 38.936760 -8.495702
v -5.539615 33.671871 -8.495702
v -17.117895 27.637337 -8.495702
v -22.405088 15.646339 -8.495702
v -20.056734 5.397499 -8.495702
v -13.841966 -0.845668 -8.495702
v -5.541653 -4.074664 -8.495702
v -5.541653 -12.730490 -8.495702
v -8.771952 -11.648512 -8.495702
v -12.062007 -8.357961 -8.495702
v -23.475916 -16.210663 -8.495702
v -15.616131 -25.156504 -8.495702
v -5.541653 -28.614376 -8.495702
v -8.400723 15.551526 -8.495702
v -7.421510 18.200701 -8.495702
v -4.915607 20.375813 -8.495702
v -4.915607 10.202984 -8.495702
v -7.522450 12.199626 -8.495702
v -8.317065 15.467870 -8.495702
v 8.732457 -9.166652 -8.495702
v 7.923762 -11.804672 -8.495702
v 5.425172 -13.979784 -8.495702
v 5.425172 -3.806958 -8.495702
v 8.024153 -5.803597 -8.495702
v 8.816115 -9.071842 -8.495702
# 179 positions

vt 0.832935 0.758288
vt 0.889933 0.758288
vt 0.889933 0.652259
vt 0.832935 0.652259
vt 0.436058 0.813976
vt 0.436058 0.756977
vt 0.560703 0.756977
vt 0.560703 0.813976
vt 0.177118 0.793057
vt 0.177118 0.850055
vt 0.301764 0.850055
vt 0.301764 0.793057
vt 0.825369 0.652259
vt 0.768371 0.652259
vt 0.768371 0.521199
vt 0.825369 0.521199
vt 0.832935 0.521199
vt 0.889933 0.521199
vt 0.889933 0.415169
vt 0.832935 0.415169
vt 0.685348 0.756977
vt 0.685348 0.813976
vt 0.052473 0.793057
vt 0.052473 0.850055
vt 0.768371 0.415169
vt 0.825369 0.415169
vt 0.825369 0.758288
vt 0.768371 0.758288
vt 0.188867 0.005000
vt 0.075231 0.041923
vt 0.005000 0.138587
vt 0.005000 0.258072
vt 0.075231 0.354736
vt 0.188867 0.391659
vt 0.302504 0.354736
vt 0.372735 0.258072
vt 0.372735 0.138587
vt 0.302504 0.041923
vt 0.519281 0.710680
vt 0.632918 0.673757
vt 0.703149 0.577092
vt 0.703149 0.457608
vt 0.632918 0.360943
vt 0.519281 0.324021
vt 0.405645 0.360943
vt 0.335414 0.457608
vt 0.335414 0.577092
vt 0.405645 0.673757
vt 0.995000 0.206680
vt 0.976271 0.206680
vt 0.939348 0.320316
vt 0.954500 0.331325
vt 0.954500 0.082035
vt 0.939348 0.093044
vt 0.848471 0.005000
vt 0.842683 0.022813
vt 0.717411 0.005000
vt 0.723199 0.022813
vt 0.611382 0.082035
vt 0.626534 0.093044
vt 0.570882 0.206680
vt 0.589612 0.206680
vt 0.611382 0.331325
vt 0.626534 0.320316
vt 0.717411 0.408360
vt 0.723199 0.390547
vt 0.848471 0.408360
vt 0.842683 0.390547
vt 0.005000 0.791551
vt 0.023730 0.791551
vt 0.060652 0.905188
vt 0.045500 0.916197
vt 0.045500 0.666906
vt 0.060652 0.677915
vt 0.151529 0.589871
vt 0.157317 0.607684
vt 0.282589 0.589871
vt 0.276801 0.607684
vt 0.388619 0.666906
vt 0.373466 0.677915
vt 0.429118 0.791551
vt 0.410389 0.791551
vt 0.388619 0.916197
vt 0.373466 0.905188
vt 0.282589 0.993231
vt 0.276801 0.975419
vt 0.151529 0.993231
vt 0.157317 0.975419
vt 0.118636 0.559488
vt 0.118636 0.570091
vt 0.005000 0.570091
vt 0.005000 0.559488
vt 0.232272 0.559488
vt 0.232272 0.570091
vt 0.703017 0.821212
vt 0.692414 0.821212
vt 0.692414 0.917876
vt 0.703017 0.917876
vt 0.703017 0.701727
vt 0.692414 0.701727
vt 0.703017 0.605063
vt 0.692414 0.605063
vt 0.532603 0.729602
vt 0.532603 0.718999
vt 0.418967 0.718999
vt 0.418967 0.729602
vt 0.646240 0.729602
vt 0.646240 0.718999
vt 0.749382 0.631318
vt 0.759984 0.631318
vt 0.759984 0.727983
vt 0.749382 0.727983
vt 0.749382 0.511834
vt 0.759984 0.511834
vt 0.749382 0.415169
vt 0.759984 0.415169
vt 0.538300 0.748591
vt 0.538300 0.737988
vt 0.651936 0.737988
vt 0.651936 0.748591
vt 0.424664 0.748591
vt 0.424664 0.737988
vt 0.722006 0.511834
vt 0.711403 0.511834
vt 0.711403 0.415169
vt 0.722006 0.415169
vt 0.722006 0.631318
vt 0.711403 0.631318
vt 0.722006 0.727983
vt 0.711403 0.727983
vt 0.152817 0.774068
vt 0.152817 0.784671
vt 0.266453 0.784671
vt 0.266453 0.774068
vt 0.039181 0.774068
vt 0.039181 0.784671
vt 0.730392 0.511834
vt 0.740995 0.511834
vt 0.740995 0.415169
vt 0.730392 0.415169
vt 0.730392 0.631318
vt 0.740995 0.631318
vt 0.730392 0.727983
vt 0.740995 0.727983
vt 0.149778 0.766376
vt 0.174023 0.766376
vt 0.174023 0.694313
vt 0.149778 0.694313
vt 0.283613 0.501261
vt 0.283613 0.477834
vt 0.274388 0.477834
vt 0.274388 0.501261
vt 0.262797 0.501261
vt 0.262797 0.477834
vt 0.248936 0.477834
vt 0.248936 0.501261
vt 0.263199 0.501261
vt 0.263199 0.477834
vt 0.191375 0.614557
vt 0.223970 0.614557
vt 0.223970 0.686621
vt 0.191375 0.686621
vt 0.162611 0.614557
vt 0.162611 0.686621
vt 0.303036 0.457818
vt 0.303036 0.449350
vt 0.230973 0.449350
vt 0.230973 0.457818
vt 0.027684 0.014495
vt 0.027684 0.037921
vt 0.027329 0.037921
vt 0.027329 0.014495
vt 0.356303 0.342412
vt 0.356303 0.293638
vt 0.428366 0.293638
vt 0.428366 0.342412
vt 0.052923 0.399978
vt 0.027329 0.399978
vt 0.027329 0.472042
vt 0.052923 0.472042
vt 0.038920 0.014495
vt 0.038920 0.037921
vt 0.048144 0.014495
vt 0.048144 0.037921
vt 0.236412 0.614557
vt 0.258363 0.614557
vt 0.258363 0.686621
vt 0.236412 0.686621
vt 0.048144 0.358841
vt 0.048144 0.335414
vt 0.005000 0.335414
vt 0.005000 0.358841
vt 0.005000 0.399978
vt 0.005000 0.472042
vt 0.013469 0.014495
vt 0.013469 0.037921
vt 0.005000 0.037921
vt 0.005000 0.014495
vt 0.103778 0.472042
vt 0.103778 0.399978
vt 0.147246 0.472042
vt 0.147246 0.399978
vt 0.173724 0.472042
vt 0.173724 0.399978
vt 0.187420 0.472042
vt 0.187420 0.399978
vt 0.224130 0.472042
vt 0.224130 0.399978
vt 0.314526 0.042149
vt 0.314526 0.028448
vt 0.386589 0.028448
vt 0.386589 0.042149
vt 0.314526 0.014495
vt 0.386589 0.014495
vt 0.063867 0.766376
vt 0.097172 0.766376
vt 0.097172 0.694313
vt 0.063867 0.694313
vt 0.135112 0.766376
vt 0.135112 0.694313
vt 0.361896 0.350606
vt 0.373132 0.350606
vt 0.373132 0.374032
vt 0.361896 0.374032
vt 0.382357 0.350606
vt 0.382357 0.374032
vt 0.005000 0.389223
vt 0.048144 0.389223
vt 0.048144 0.365797
vt 0.005000 0.365797
vt 0.339212 0.350606
vt 0.347681 0.350606
vt 0.347681 0.374032
vt 0.339212 0.374032
vt 0.361541 0.350606
vt 0.361541 0.374032
vt 0.253704 0.410112
vt 0.264893 0.410112
vt 0.264893 0.386685
vt 0.253704 0.386685
vt 0.274117 0.410112
vt 0.274117 0.386685
vt 0.230973 0.417068
vt 0.274117 0.417068
vt 0.274117 0.440495
vt 0.230973 0.440495
vt 0.230973 0.410112
vt 0.239441 0.410112
vt 0.239441 0.386685
vt 0.230973 0.386685
vt 0.253302 0.410112
vt 0.253302 0.386685
vt 0.029600 0.551797
vt 0.005000 0.551797
vt 0.005000 0.479733
vt 0.029600 0.479733
vt 0.283612 0.508217
vt 0.283612 0.531643
vt 0.240468 0.531643
vt 0.240468 0.508217
vt 0.240468 0.477834
vt 0.240468 0.501261
vt 0.055147 0.479733
vt 0.055147 0.551797
vt 0.104535 0.479733
vt 0.104535 0.551797
vt 0.165894 0.479733
vt 0.165894 0.551797
vt 0.303036 0.469409
vt 0.230973 0.469409
vt 0.191204 0.479733
vt 0.191204 0.551797
vt 0.233591 0.479733
vt 0.233591 0.551797
vt 0.331042 0.369595
vt 0.282244 0.369595
vt 0.282244 0.441659
vt 0.331042 0.441659
vt 0.503935 0.191228
vt 0.503935 0.233615
vt 0.457807 0.237022
vt 0.457807 0.193877
vt 0.699758 0.132701
vt 0.699758 0.175089
vt 0.745886 0.172440
vt 0.745886 0.129295
vt 0.748541 0.269705
vt 0.748541 0.232994
vt 0.702029 0.231858
vt 0.702029 0.275003
vt 0.455152 0.133323
vt 0.455152 0.096612
vt 0.501665 0.091313
vt 0.501665 0.134458
vt 0.446751 0.202345
vt 0.443381 0.216206
vt 0.443026 0.216561
vt 0.447179 0.227797
vt 0.515525 0.228932
vt 0.523994 0.219991
vt 0.569410 0.248754
vt 0.539085 0.281349
vt 0.503935 0.293791
vt 0.503935 0.315742
vt 0.455161 0.315742
vt 0.455161 0.293413
vt 0.406055 0.267819
vt 0.383631 0.216963
vt 0.393591 0.173496
vt 0.419949 0.147017
vt 0.512687 0.125990
vt 0.516046 0.112129
vt 0.515692 0.111727
vt 0.512261 0.100538
vt 0.441452 0.101201
vt 0.427498 0.115156
vt 0.379090 0.081852
vt 0.412424 0.043911
vt 0.455152 0.029245
vt 0.455137 0.005000
vt 0.503935 0.005024
vt 0.503935 0.029624
vt 0.552379 0.055170
vt 0.575844 0.104559
vt 0.556068 0.165918
vt 0.748532 0.072904
vt 0.748532 0.050574
vt 0.699758 0.050574
vt 0.699758 0.072525
vt 0.664608 0.084967
vt 0.634284 0.117562
vt 0.679700 0.146326
vt 0.688167 0.137384
vt 0.756513 0.138520
vt 0.760667 0.149755
vt 0.760313 0.150110
vt 0.756942 0.163971
vt 0.647624 0.200399
vt 0.627850 0.261757
vt 0.651315 0.311146
vt 0.699758 0.336693
vt 0.699758 0.361293
vt 0.748556 0.361316
vt 0.748541 0.337071
vt 0.791268 0.322406
vt 0.824604 0.284465
vt 0.776195 0.251160
vt 0.762241 0.265116
vt 0.691432 0.265778
vt 0.688002 0.254590
vt 0.687647 0.254188
vt 0.691006 0.240326
vt 0.783744 0.219299
vt 0.810102 0.192820
vt 0.820061 0.149353
vt 0.797638 0.098497
# 356 texture coordinates

vn 0.689152 0.000000 0.724617
vn 0.689152 0.000000 -0.724617
vn 0.557535 -0.405073 0.724617
vn 0.557535 -0.405073 -0.724617
vn 0.212960 -0.655422 0.724617
vn 0.212960 -0.655422 -0.724617
vn -0.212960 -0.655422 0.724617
vn -0.212960 -0.655422 -0.724617
vn -0.557535 -0.405073 0.724617
vn -0.557535 -0.405073 -0.724617
vn -0.689152 0.000000 0.724617
vn -0.689152 0.000000 -0.724617
vn -0.557535 0.405073 0.724617
vn -0.557535 0.405073 -0.724617
vn -0.212960 0.655422 0.724617
vn -0.212960 0.655422 -0.724617
vn 0.212960 0.655422 0.724617
vn 0.212960 0.655422 -0.724617
vn 0.557535 0.405073 0.724617
vn 0.557535 0.405073 -0.724617
vn -0.689152 0.000000 -0.724617
vn -0.557535 0.405073 -0.724617
vn -0.212960 0.655422 -0.724617
vn 0.212960 0.655422 -0.724617
vn 0.557535 0.405073 -0.724617
vn 0.689152 0.000000 -0.724617
vn 0.557535 -0.405073 -0.724617
vn 0.212960 -0.655422 -0.724617
vn -0.212960 -0.655422 -0.724617
vn -0.557535 -0.405073 -0.724617
vn -0.689152 0.000000 0.724617
vn -0.557535 0.405073 0.724617
vn -0.212960 0.655422 0.724617
vn 0.212960 0.655422 0.724617
vn 0.557535 0.405073 0.724617
vn 0.689152 0.000000 0.724617
vn 0.557535 -0.405073 0.724617
vn 0.212960 -0.655422 0.724617
vn -0.212960 -0.655422 0.724617
vn -0.557535 -0.405073 0.724617
vn -0.885131 0.000000 -0.465341
vn -0.716086 0.520267 -0.465341
vn -0.273521 0.841810 -0.465341
vn 0.273521 0.841810 -0.465341
vn 0.716086 0.520267 -0.465341
vn 0.885131 0.000000 -0.465341
vn 0.716086 -0.520267 -0.465341
vn 0.273521 -0.841810 -0.465341
vn -0.273521 -0.841810 -0.465341
vn -0.716086 -0.520267 -0.465341
vn -0.885131 0.000000 0.465341
vn -0.716086 0.520267 0.465341
vn -0.273521 0.841810 0.465341
vn 0.273521 0.841810 0.465341
vn 0.716086 0.520267 0.465341
vn 0.885131 0.000000 0.465341
vn 0.716086 -0.520267 0.465341
vn 0.273521 -0.841810 0.465341
vn -0.273521 -0.841810 0.465341
vn -0.716086 -0.520267 0.465341
vn -0.577283 -0.577205 0.577563
vn 0.577537 -0.577257 0.577257
vn 0.739456 -0.446028 0.504246
vn 0.638501 -0.612381 0.466160
vn 0.878766 -0.057975 0.473719
vn 0.663217 0.576196 0.477641
vn 0.548010 0.343129 0.762855
vn 0.272907 -0.404622 0.872813
vn -0.501401 -0.735589 0.455528
vn -0.103816 -0.832942 0.543534
vn 0.781006 -0.100877 0.616323
vn 0.487867 0.743281 0.457733
vn 0.696427 0.492254 0.522183
vn 0.577350 0.577350 0.577350
vn -0.577350 0.577350 0.577350
vn -0.738104 0.447643 0.504795
vn -0.644832 0.604118 0.468224
vn -0.880755 0.083942 0.466072
vn -0.776788 -0.428589 0.461424
vn -0.487501 -0.745155 0.455068
vn -0.525417 -0.359376 0.771224
vn -0.294618 0.409387 0.863483
vn 0.468223 0.756309 0.456908
vn 0.076531 0.834759 0.545271
vn -0.792783 0.098534 0.601486
vn -0.494358 -0.737886 0.459493
vn -0.693528 -0.494878 0.523560
vn 0.839919 0.184011 0.510565
vn 0.730881 -0.505406 0.458670
vn -0.159091 -0.348753 0.923613
vn -0.179196 0.362970 0.914408
vn 0.740046 0.482577 0.468457
vn 0.773689 0.434757 0.460860
vn -0.776890 0.434792 0.455410
vn -0.744060 0.483220 0.461381
vn 0.158623 0.348396 0.923829
vn 0.178711 -0.362652 0.914629
vn -0.740602 -0.481766 0.468412
vn -0.845574 0.209284 0.491127
vn -0.838250 -0.545287 0.000000
vn 0.442031 -0.897000 0.000000
vn -0.872634 0.488376 0.000000
vn 0.871789 0.489882 0.000000
vn -0.415028 -0.909809 0.000000
vn 0.822502 -0.568763 0.000000
vn 0.414370 0.910109 0.000000
vn 0.976832 0.214007 0.000000
vn 0.837643 0.546219 0.000000
vn -0.970710 0.240255 0.000000
vn -0.442685 0.896677 0.000000
vn -0.838659 0.544657 0.000000
vn 0.976832 0.214007 0.000000
vn 0.822502 -0.568763 0.000000
vn -0.415028 -0.909809 0.000000
vn -0.442685 0.896677 0.000000
vn 0.837643 0.546219 0.000000
vn 0.871789 0.489882 0.000000
vn -0.872634 0.488376 0.000000
vn -0.838659 0.544657 0.000000
vn 0.414370 0.910109 0.000000
vn 0.442031 -0.897000 0.000000
vn -0.838250 -0.545287 0.000000
vn -0.970710 0.240255 0.000000
vn -0.577283 -0.577205 -0.577563
vn 0.577537 -0.577257 -0.577257
vn 0.739456 -0.446028 -0.504246
vn 0.638501 -0.612381 -0.466160
vn 0.878766 -0.057975 -0.473719
vn 0.663217 0.576196 -0.477641
vn 0.548010 0.343129 -0.762855
vn 0.272907 -0.404622 -0.872813
vn -0.501401 -0.735589 -0.455528
vn -0.103816 -0.832942 -0.543534
vn 0.781006 -0.100877 -0.616323
vn 0.487867 0.743281 -0.457733
vn 0.696427 0.492254 -0.522183
vn 0.577350 0.577350 -0.577350
vn -0.577350 0.577350 -0.577350
vn -0.738104 0.447643 -0.504795
vn -0.644832 0.604118 -0.468224
vn -0.880755 0.083942 -0.466072
vn -0.776788 -0.428589 -0.461424
vn -0.487501 -0.745155 -0.455068
vn -0.525417 -0.359376 -0.771224
vn -0.294618 0.409387 -0.863483
vn 0.468223 0.756309 -0.456908
vn 0.076531 0.834759 -0.545271
vn -0.792783 0.098534 -0.601486
vn -0.494358 -0.737886 -0.459493
vn -0.693528 -0.494878 -0.523560
vn 0.839919 0.184011 -0.510565
vn 0.730881 -0.505406 -0.458670
vn -0.159091 -0.348753 -0.923613
vn -0.179196 0.362970 -0.914408
vn 0.740046 0.482577 -0.468457
vn 0.773689 0.434757 -0.460860
vn -0.776890 0.434792 -0.455410
vn -0.744060 0.483220 -0.461381
vn 0.158623 0.348396 -0.923829
vn 0.178711 -0.362652 -0.914629
vn -0.740602 -0.481766 -0.468412
vn -0.845574 0.209284 -0.491127
# 162 normals

usemtl default
f 11/1/9 12/2/10 10/3/8 9/4/7
f 5/5/3 6/6/4 4/7/2 3/8/1
f 13/9/11 14/10/12 12/11/10 11/12/9
f 19/13/17 20/14/18 18/15/16 17/16/15
f 7/17/5 8/18/6 6/19/4 5/20/3
f 3/8/1 4/7/2 22/21/20 21/22/19
f 15/23/13 16/24/14 14/10/12 13/9/11
f 9/4/7 10/3/8 8/18/6 7/17/5
f 17/16/15 18/15/16 16/25/14 15/26/13
f 21/27/19 22/28/20 20/14/18 19/13/17
f 48/29/46 49/30/47 50/31/48 51/32/49 52/33/50 43/34/41 44/35/42 45/36/43 46/37/44 47/38/45
f 58/39/56 57/40/55 56/41/54 55/42/53 54/43/52 53/44/51 62/45/60 61/46/59 60/47/58 59/48/57
f 14/49/12 28/50/26 27/51/25 12/52/10
f 16/53/14 29/54/27 28/50/26 14/49/12
f 18/55/16 30/56/28 29/54/27 16/53/14
f 20/57/18 31/58/29 30/56/28 18/55/16
f 22/59/20 32/60/30 31/58/29 20/57/18
f 4/61/2 23/62/21 32/60/30 22/59/20
f 6/63/4 24/64/22 23/62/21 4/61/2
f 8/65/6 25/66/23 24/64/22 6/63/4
f 10/67/8 26/68/24 25/66/23 8/65/6
f 12/52/10 27/51/25 26/68/24 10/67/8
f 13/69/11 38/70/36 39/71/37 15/72/13
f 11/73/9 37/74/35 38/70/36 13/69/11
f 9/75/7 36/76/34 37/74/35 11/73/9
f 7/77/5 35/78/33 36/76/34 9/75/7
f 5/79/3 34/80/32 35/78/33 7/77/5
f 3/81/1 33/82/31 34/80/32 5/79/3
f 21/83/19 42/84/40 33/82/31 3/81/1
f 19/85/17 41/86/39 42/84/40 21/83/19
f 17/87/15 40/88/38 41/86/39 19/85/17
f 15/72/13 39/71/37 40/88/38 17/87/15
f 28/89/26 48/90/46 47/91/45 27/92/25
f 29/93/27 49/94/47 48/90/46 28/89/26
f 30/95/28 50/96/48 49/97/47 29/98/27
f 31/99/29 51/100/49 50/96/48 30/95/28
f 32/101/30 52/102/50 51/100/49 31/99/29
f 23/103/21 43/104/41 52/105/50 32/106/30
f 24/107/22 44/108/42 43/104/41 23/103/21
f 25/109/23 45/110/43 44/111/42 24/112/22
f 26/113/24 46/114/44 45/110/43 25/109/23
f 27/115/25 47/116/45 46/114/44 26/113/24
f 38/117/36 58/118/56 59/119/57 39/120/37
f 37/121/35 57/122/55 58/118/56 38/117/36
f 36/123/34 56/124/54 57/125/55 37/126/35
f 35/127/33 55/128/53 56/124/54 36/123/34
f 34/129/32 54/130/52 55/128/53 35/127/33
f 33/131/31 53/132/51 54/133/52 34/134/32
f 42/135/40 62/136/60 53/132/51 33/131/31
f 41/137/39 61/138/59 62/139/60 42/140/40
f 40/141/38 60/142/58 61/138/59 41/137/39
f 39/143/37 59/144/57 60/142/58 40/141/38
f 167/145/150 141/146/124 63/147/61 89/148/87
f 176/149/159 121/150/106 126/151/111 175/152/158
f 179/153/162 124/154/109 114/155/100 178/156/161
f 174/157/157 116/158/102 124/154/109 179/153/162
f 151/159/134 152/160/135 74/161/72 73/162/71
f 150/163/133 151/159/134 73/162/71 72/164/70
f 149/165/132 150/166/133 72/167/70 71/168/69
f 168/169/151 122/170/107 117/171/103 173/172/156
f 154/173/137 155/174/138 77/175/75 76/176/74
f 175/152/158 126/151/111 116/158/102 174/157/157
f 79/177/77 78/178/76 156/179/139 157/180/140
f 169/181/152 119/182/105 122/170/107 168/169/151
f 170/183/153 118/184/104 119/182/105 169/181/152
f 153/185/136 154/186/137 76/187/74 75/188/73
f 171/189/154 125/190/110 118/191/104 170/192/153
f 78/178/76 77/193/75 155/194/138 156/179/139
f 172/195/155 123/196/108 125/197/110 171/198/154
f 157/180/140 158/199/141 80/200/78 79/177/77
f 158/199/141 159/201/142 81/202/79 80/200/78
f 159/201/142 160/203/143 82/204/80 81/202/79
f 160/203/143 161/205/144 83/206/81 82/204/80
f 161/205/144 162/207/145 84/208/82 83/206/81
f 162/209/145 163/210/146 85/211/83 84/212/82
f 163/210/146 164/213/147 86/214/84 85/211/83
f 164/215/147 165/216/148 87/217/85 86/218/84
f 165/216/148 166/219/149 88/220/86 87/217/85
f 166/219/149 167/145/150 89/148/87 88/220/86
f 129/221/112 130/222/113 91/223/89 90/224/88
f 130/222/113 131/225/114 92/226/90 91/223/89
f 131/227/114 132/228/115 93/229/91 92/230/90
f 132/231/115 133/232/116 94/233/92 93/234/91
f 133/232/116 134/235/117 95/236/93 94/233/92
f 134/235/117 129/221/112 90/224/88 95/236/93
f 135/237/118 136/238/119 97/239/95 96/240/94
f 136/238/119 137/241/120 98/242/96 97/239/95
f 137/243/120 138/244/121 99/245/97 98/246/96
f 138/247/121 139/248/122 100/249/98 99/250/97
f 139/248/122 140/251/123 101/252/99 100/249/98
f 140/251/123 135/237/118 96/240/94 101/252/99
f 65/253/63 64/254/62 142/255/125 143/256/126
f 177/257/160 115/258/101 121/259/106 176/260/159
f 178/156/161 114/155/100 115/261/101 177/262/160
f 143/256/126 144/263/127 66/264/64 65/253/63
f 144/263/127 145/265/128 67/266/65 66/264/64
f 145/265/128 146/267/129 68/268/66 67/266/65
f 148/269/131 149/165/132 71/168/69 70/270/68
f 146/267/129 147/271/130 69/272/67 68/268/66
f 147/271/130 148/273/131 70/274/68 69/272/67
f 141/275/124 142/276/125 64/277/62 63/278/61
f 152/160/135 153/185/136 75/188/73 74/161/72
f 173/172/156 117/171/103 123/196/108 172/195/155
f 69/279/67 70/280/68 92/281/90 93/282/91
f 148/283/131 147/284/130 171/285/154 170/286/153
f 162/287/145 161/288/144 177/289/160 176/290/159
f 83/291/81 84/292/82 98/293/96 99/294/97
f 69/279/67 93/282/91 94/295/92 95/296/93 90/297/88 91/298/89 92/281/90 70/280/68 71/299/69 72/300/70 73/301/71 74/302/72 75/303/73 76/304/74 77/305/75 78/306/76 79/307/77 80/308/78 81/309/79 82/310/80 83/291/81 99/294/97 100/311/98 101/312/99 96/313/94 97/314/95 98/293/96 84/292/82 85/315/83 86/316/84 87/317/85 88/318/86 89/319/87 63/320/61 64/321/62 65/322/63 66/323/64 67/324/65 68/325/66
f 156/326/139 155/327/138 154/328/137 153/329/136 152/330/135 151/331/134 150/332/133 149/333/132 148/283/131 170/286/153 169/334/152 168/335/151 173/336/156 172/337/155 171/285/154 147/284/130 146/338/129 145/339/128 144/340/127 143/341/126 142/342/125 141/343/124 167/344/150 166/345/149 165/346/148 164/347/147 163/348/146 162/287/145 176/290/159 175/349/158 174/350/157 179/351/162 178/352/161 177/289/160 161/288/144 160/353/143 159/354/142 158/355/141 157/356/140

# 109 faces
